<svg width="805" height="180" viewBox="0 0 805 180" fill="none" xmlns="http://www.w3.org/2000/svg">
<path d="M90.5687 157.624L88.0515 155.875L156.466 52.5641L158.969 54.3129L90.5687 157.624Z" fill="#F7CF92"/>
<path d="M156.466 52.5641C156.48 52.5641 163.258 57.2613 163.258 57.2613L93.2125 163.824L97.3328 168.68L167.772 61.5395C170.95 56.3508 169.263 54.0383 167.28 52.7375C165.592 51.6535 164.256 51.9137 165.128 51.1332C165.845 50.4684 167.041 49.5434 166.633 48.734C166.211 47.8957 165.466 46.8551 162.273 48.4449C158.758 50.1938 156.311 52.4629 156.466 52.5641Z" fill="#FF7043"/>
<path d="M102.283 161.15C100.609 160.023 96.8125 158.173 95.35 160.514L95.2657 160.659C94.7453 161.454 94.5485 161.815 93.8032 161.324L90.7938 159.358C90.2594 158.997 90.0344 158.419 90.5547 157.624L90.8782 157.118C91.511 156.164 90.8641 154.618 89.4719 153.678L85.9422 159.315C84.986 160.789 85.3938 162.263 86.6453 163.116L91.6797 166.426L90.836 167.712C90.1328 168.811 90.5547 170.386 91.8063 171.239L92.2141 171.513C93.4656 172.366 95.0547 172.164 95.7719 171.065L97.2485 168.811L102.283 161.15Z" fill="#455A64"/>
<path d="M122.097 28.8609C121.281 28.7886 120.466 29.0343 119.748 29.3812C117.794 30.3351 116.359 29.5836 115.67 28.7308C114.292 26.9965 114.925 24.1058 117.105 22.2703C119.284 20.4347 122.167 20.3625 123.545 22.0968C124.122 22.8195 124.333 23.7734 124.263 24.6984C124.22 25.1465 124.023 25.4355 124.248 25.8691C124.445 26.2449 125.106 26.7218 126.006 27.5023C126.386 27.8347 125.092 30.075 124.642 29.8726C122.702 28.9621 122.448 28.8898 122.097 28.8609Z" fill="#455A64"/>
<path d="M135.1 21.2448C137.275 19.4143 137.918 16.5235 136.536 14.7879C135.153 13.0524 132.269 13.1293 130.093 14.9598C127.918 16.7903 127.275 19.6811 128.658 21.4167C130.04 23.1522 132.924 23.0753 135.1 21.2448Z" fill="#455A64"/>
<path d="M100.356 71.064C99.9345 70.6449 99.5267 70.2835 99.1048 69.8933L17.5142 151.626C25.0376 160.919 36.2595 169.634 50.561 171.788C63.5407 173.739 71.711 166.83 76.5907 155.745C78.2079 152.074 81.0064 147.232 83.4814 146.148C84.4095 145.743 85.661 145.064 85.2814 143.749C85.1126 143.156 84.6064 142.997 83.7767 142.202C83.1157 141.566 82.4267 140.627 82.272 140.425C78.0392 134.961 75.1282 131.579 81.2454 124.873C87.2079 118.326 94.0564 118.167 97.136 121.144C97.6985 121.679 98.472 121.881 99.1751 121.578C99.2735 121.534 99.3579 121.491 99.4564 121.462C100.399 121.057 100.82 119.988 100.553 118.976C99.9907 116.938 100.413 115.146 101.214 113.354C103.591 108.064 124.572 95.1285 100.356 71.064Z" fill="#A65F3E"/>
<path d="M135.934 33.775L93.9579 77.8426" stroke="#FF7043" stroke-width="15.7312" stroke-miterlimit="10"/>
<path d="M95.2938 65.355C68.7438 41.9843 57.7328 71.7577 49.2672 69.5464C47.2563 69.0261 45.9907 71.1796 46.9188 73.0585C47.3547 73.9402 50.4063 78.9265 45.0344 85.1269C41.1532 89.5929 37.1453 90.7636 33.4328 89.5784C32.3219 89.2171 31.2532 88.4366 30.2969 88.0898C29.3407 87.7429 28.1453 88.0609 27.8782 90.9515C27.7235 92.657 26.8797 93.8855 24.3344 94.9406C19.3704 96.9784 14.9125 98.8863 10.8625 102.08C2.15785 108.96 -2.21559 119.337 3.31097 132.056C8.83754 144.775 23.7016 163.347 45.611 166.787C58.7454 168.854 66.9578 161.916 71.8235 150.759C73.4266 147.073 75.6485 142.679 78.1516 141.61C79.0938 141.205 80.0641 140.844 80.0922 139.63C80.1203 138.459 78.3203 137.794 76.8016 136.002C73.1032 131.637 70.2907 126.246 76.3797 119.569C82.3703 113.007 89.2891 112.877 92.425 115.912C92.9875 116.461 93.7891 116.664 94.5063 116.36C94.5907 116.317 94.675 116.288 94.7594 116.244C95.7157 115.84 96.1516 114.756 95.8563 113.73C95.2797 111.663 95.6875 109.871 96.4891 108.05C98.8094 102.76 123.278 89.9831 95.2938 65.355Z" fill="#FF7043"/>
<path d="M16.1219 110.752C19.2157 113.845 21.6485 117.921 22.1829 122.127C22.8016 127.113 20.7204 131.565 18.0063 135.062C16.9938 136.378 15.4469 137.837 15.2079 140.641C14.7579 145.859 18.2032 147.015 19.0047 148.258C19.8063 149.501 20.2141 151.264 19.3141 152.117C18.6532 152.739 17.5141 152.594 16.6282 152.03C15.7422 151.467 15.1376 150.513 14.4485 149.689C5.84225 139.5 0.048496 131.276 0.850058 118.037C1.00475 115.507 4.60475 105.26 7.29068 104.465C9.80787 103.699 14.2094 108.845 16.1219 110.752Z" fill="#455A64"/>
<path d="M40.675 108.295L34.0797 122.763" stroke="#CFD8DC" stroke-width="3.125" stroke-miterlimit="10"/>
<path d="M44.0079 110.348L36.0907 124.526" stroke="#CFD8DC" stroke-width="3.125" stroke-miterlimit="10"/>
<path d="M47.7906 112.66L37.8906 126.13" stroke="#CFD8DC" stroke-width="3.125" stroke-miterlimit="10"/>
<path d="M50.3359 115.233L40.1406 128.443" stroke="#CFD8DC" stroke-width="3.125" stroke-miterlimit="10"/>
<path d="M141.18 37.8074C145.708 31.5492 149.73 30.6964 155.65 29.0199C162.513 27.0832 167.8 25.8691 169.066 18.498C170.683 9.11794 161.303 1.19763 153.555 0.894111C150.011 0.74958 145.103 3.30778 145.005 8.10622C144.934 11.705 147.142 13.4105 148.52 14.7257C144.583 18.1367 125.219 18.5269 122.8 31.9539C121.619 38.5011 122.702 37.8941 127.806 41.175C129.888 42.5046 136.089 44.8316 141.18 37.8074Z" fill="#FF7043"/>
<path d="M150.841 16.4457C150.841 16.4457 154.469 19.4086 155.538 19.9433C155.538 19.9433 144.991 24.3226 139.83 26.6207C131.28 30.4363 129.634 38.1254 129.634 38.1254C127.005 41.1894 76.3797 93.5097 76.3797 93.5097L63.2734 83.4359C63.2734 83.4359 121.197 33.0668 129.353 26.4472C135.147 21.7644 150.841 16.4457 150.841 16.4457Z" fill="#455A64"/>
<path d="M158.983 22.8196C155.495 22.0824 154.975 19.5676 154.975 19.5676C154.975 19.5676 158.688 22.7617 162.189 20.2035C163.539 19.2207 163.75 17.9778 163.666 17.443C163.3 15.0004 160.839 15.911 160.797 15.9399C160.15 16.3735 159.644 16.1422 159.222 15.6653C158.8 15.2028 159.095 14.35 159.742 13.9164C161.641 12.6735 166.464 13.0203 166.084 18.1367C165.761 22.7907 161.374 23.3399 158.983 22.8196Z" fill="#37474F"/>
<path d="M65.7063 135.829C66.325 134.672 65.6359 132.851 64.2156 132.562L64.2859 132.49C63.2313 132.36 62.2047 132.981 61.8672 133.95C56.6781 130.64 64.2297 122.676 66.5078 119.916C71.1625 114.25 72.3578 109.452 68.2656 106.836C68.2516 106.836 66.7609 105.809 65.8469 106.286C64.3984 107.023 64.1172 108.295 64.2578 108.816C64.6938 110.463 66.8172 111.865 68.1391 109.553C69.925 115.536 58.3938 121.621 57.8734 129.166C56.9734 132.837 61.4734 138.242 64.8344 136.855L64.8063 136.797C65.1859 136.566 65.5094 136.233 65.7063 135.829Z" fill="#37474F"/>
<path d="M26.6266 98.3515C27.5688 97.6722 29.2141 98.1202 29.6219 99.3777L29.6781 99.3054C29.9031 100.259 29.4813 101.257 28.6938 101.676C32.1531 106.084 38.2 98.3515 40.3234 95.9956C44.6969 91.1538 48.7188 89.564 51.4609 93.0327C51.475 93.0327 52.5156 94.3046 52.2203 95.1862C51.7422 96.5882 50.6875 96.9784 50.2094 96.9062C48.7328 96.6749 47.2844 94.8827 49.1406 93.4374C43.7547 92.4112 39.7891 103.584 33.3203 104.855C30.2406 106.055 25.0516 102.5 25.8672 99.2765L25.9234 99.2909C26.0359 98.9151 26.2891 98.5683 26.6266 98.3515Z" fill="#37474F"/>
<path d="M168.503 12.1676C167.294 10.3031 166 10.0863 164.2 9.78281C162.4 9.49375 160.502 9.7539 159.166 10.5922C154.455 13.4539 154.609 17.2262 154.975 19.582C153.597 18.6281 151.783 13.7719 156.058 9.43593C158.181 7.28242 162.119 6.58867 164.777 7.62929C167.603 8.77109 168.503 12.1676 168.503 12.1676Z" fill="#F7CF92"/>
<path d="M43.15 130.582C43.15 130.582 39.9297 134.152 36.4422 135.742C34.1078 136.811 33.3484 137.375 31.2812 138.589C29.2141 139.803 20.7344 150.455 20.7344 150.455C20.2703 151.163 19.7922 151.9 18.9344 152.175C18.0766 152.45 15.8125 149.776 15.8125 149.776C15.8125 149.776 23.3781 134.716 26.6828 128.414C29.4813 123.066 32.8281 120.479 32.8281 120.479L43.15 130.582Z" fill="#455A64"/>
<path d="M40.675 108.295L126.077 30.6387" stroke="#CFD8DC" stroke-width="3.125" stroke-miterlimit="10" stroke-linecap="round"/>
<path d="M44.0078 110.348L127.441 31.9972" stroke="#CFD8DC" stroke-width="3.125" stroke-miterlimit="10" stroke-linecap="round"/>
<path d="M47.7906 112.66L128.777 33.3414" stroke="#CFD8DC" stroke-width="3.125" stroke-miterlimit="10" stroke-linecap="round"/>
<path d="M50.3359 115.233L130.267 34.6855" stroke="#CFD8DC" stroke-width="3.125" stroke-miterlimit="10" stroke-linecap="round"/>
<path d="M52.5298 123.37L36.5126 108.425C36.5126 108.425 40.7173 104.696 43.3188 107.385C43.3188 107.385 49.0423 112.024 51.8126 115.117C54.5688 118.21 52.5298 123.37 52.5298 123.37Z" fill="#A65F3E"/>
<path d="M150.672 43.6319C148.38 45.323 145.525 45.612 144.231 43.8054C142.713 41.7097 144.611 39.7585 143.444 37.7062C143.078 37.0558 142.53 36.5355 142.192 35.8706C141.855 35.2058 141.784 34.2952 142.333 33.7894C143.556 32.6909 144.766 33.9917 145.131 34.353C147.761 36.9401 147.958 36.1597 149.856 36.0007C152.374 35.7984 153.611 37.2437 153.597 38.848C153.583 40.5245 152.219 42.4757 150.672 43.6319Z" fill="#455A64"/>
<path d="M163.061 37.2726C160.881 39.1081 157.998 39.1804 156.62 37.446C156.002 36.6656 155.819 35.914 155.931 34.6566C156.142 32.1995 155.538 31.13 154.947 30.6242C154.595 30.3206 154.314 29.9738 153.991 29.6847C153.4 29.1788 153.47 28.514 153.681 28.0949C153.892 27.6757 154.666 27.3288 155.116 27.3722C155.931 27.4589 156.578 28.0804 157.239 28.6007C159.503 30.4218 160.67 29.8148 161.978 29.8003C163.286 29.7859 164.116 30.3351 164.495 30.812C165.888 32.5464 165.241 35.4515 163.061 37.2726Z" fill="#455A64"/>
<path d="M256.384 46.728C256.64 48.1787 256.811 49.2027 256.896 49.8C257.067 50.312 257.152 51.0373 257.152 51.976C257.152 54.792 256.512 57.4373 255.232 59.912C254.037 62.3013 252.373 64.008 250.24 65.032C248.533 62.728 246.443 60.7653 243.968 59.144C241.493 57.4373 238.763 56.072 235.776 55.048C232.875 53.9387 229.845 53.128 226.688 52.616C223.531 52.104 220.459 51.848 217.472 51.848C214.485 51.848 211.669 52.104 209.024 52.616C206.464 53.0427 204.16 53.6827 202.112 54.536C200.149 55.304 198.571 56.2853 197.376 57.48C196.267 58.6747 195.712 60.04 195.712 61.576C195.968 63.4533 197.12 65.3733 199.168 67.336C201.216 69.2133 203.733 71.0907 206.72 72.968C209.707 74.76 212.992 76.552 216.576 78.344C220.245 80.136 223.829 81.8427 227.328 83.464C231.68 85.512 235.435 87.432 238.592 89.224C241.749 90.9307 244.352 92.8507 246.4 94.984C248.448 97.032 249.984 99.3787 251.008 102.024C252.032 104.669 252.544 107.869 252.544 111.624C252.544 115.976 251.819 120.072 250.368 123.912C248.917 127.667 246.784 130.952 243.968 133.768C241.237 136.584 237.909 138.76 233.984 140.296C230.059 141.917 225.664 142.728 220.8 142.728C216.021 142.728 210.859 142.003 205.312 140.552C199.765 139.101 194.56 137.096 189.696 134.536C184.917 132.061 180.907 129.203 177.664 125.96C174.507 122.632 172.928 119.133 172.928 115.464C172.928 113.757 173.397 111.581 174.336 108.936C175.36 106.291 177.152 103.517 179.712 100.616C179.968 103.176 181.333 106.205 183.808 109.704C186.368 113.203 190.165 116.445 195.2 119.432C199.893 122.163 204.715 124.168 209.664 125.448C214.699 126.643 219.392 127.24 223.744 127.24C228.523 127.24 232.405 126.643 235.392 125.448C238.379 124.253 240.725 122.845 242.432 121.224C244.139 119.517 245.333 117.811 246.016 116.104C246.699 114.397 247.083 113.032 247.168 112.008C247.083 110.301 246.272 108.68 244.736 107.144C243.285 105.523 241.28 103.987 238.72 102.536C236.245 101 233.344 99.464 230.016 97.928C226.688 96.392 223.232 94.856 219.648 93.32C214.272 90.9307 209.621 88.712 205.696 86.664C201.856 84.5307 198.656 82.3973 196.096 80.264C193.621 78.0453 191.787 75.7413 190.592 73.352C189.483 70.9627 188.928 68.232 188.928 65.16C188.928 60.3813 190.379 55.8587 193.28 51.592C196.181 47.3253 200.363 44.0827 205.824 41.864C208.555 40.6693 211.456 39.816 214.528 39.304C217.685 38.792 220.757 38.536 223.744 38.536C229.376 38.536 234.88 39.304 240.256 40.84C245.632 42.376 251.008 44.3387 256.384 46.728ZM266.593 83.976C266.166 83.464 265.782 82.3973 265.441 80.776C265.1 79.0693 264.929 77.6187 264.929 76.424C267.148 76.5947 269.281 76.7653 271.329 76.936C273.377 77.0213 275.254 77.1067 276.961 77.192C278.241 74.632 279.606 72.1147 281.057 69.64C282.593 67.08 284.044 64.776 285.409 62.728C286.86 60.5947 288.182 58.8027 289.377 57.352C290.657 55.9013 291.638 54.9627 292.321 54.536C293.174 54.536 294.241 54.7067 295.521 55.048C296.886 55.304 298.252 55.688 299.617 56.2C300.982 56.6267 302.22 57.096 303.329 57.608C304.438 58.12 305.206 58.632 305.633 59.144C303.073 62.3867 300.854 65.416 298.977 68.232C297.185 70.9627 295.222 74.12 293.089 77.704C294.796 77.704 296.502 77.6613 298.209 77.576C300.001 77.4907 301.793 77.3627 303.585 77.192C304.012 77.6187 304.353 78.1733 304.609 78.856C304.865 79.4533 304.993 80.0933 304.993 80.776C300.812 82.312 295.734 83.1653 289.761 83.336C287.628 87.432 285.708 91.528 284.001 95.624C282.38 99.6347 280.972 103.517 279.777 107.272C278.668 111.027 277.772 114.568 277.089 117.896C276.492 121.224 276.193 124.211 276.193 126.856C276.193 130.611 277.601 132.701 280.417 133.128C282.977 132.787 285.409 132.147 287.713 131.208C290.017 130.269 292.065 129.075 293.857 127.624C294.369 128.392 294.668 129.032 294.753 129.544C294.241 130.312 293.345 131.208 292.065 132.232C290.87 133.256 289.548 134.237 288.097 135.176C286.646 136.2 285.238 137.053 283.873 137.736C282.508 138.419 281.484 138.803 280.801 138.888C278.668 138.803 276.534 138.333 274.401 137.48C272.268 136.627 270.305 135.56 268.513 134.28C266.806 133 265.398 131.592 264.289 130.056C263.18 128.435 262.625 126.856 262.625 125.32C262.625 123.272 262.881 120.712 263.393 117.64C263.99 114.483 264.801 111.069 265.825 107.4C266.849 103.731 268.044 99.8907 269.409 95.88C270.774 91.8693 272.268 87.9013 273.889 83.976H266.593ZM338.857 130.184C337.236 128.819 336.126 127.112 335.529 125.064C335.017 123.016 334.761 121.267 334.761 119.816C334.761 118.024 334.974 116.488 335.401 115.208C335.06 115.208 334.292 115.891 333.097 117.256C331.902 118.621 330.58 120.243 329.129 122.12C327.764 123.997 326.398 125.832 325.033 127.624C323.668 129.416 322.644 130.739 321.961 131.592C320.852 132.787 319.785 133.725 318.761 134.408C317.822 135.091 317.054 135.475 316.457 135.56C315.092 135.475 313.641 135.176 312.105 134.664C310.654 134.237 309.246 133.597 307.881 132.744C306.601 131.891 305.449 130.867 304.425 129.672C303.486 128.477 302.846 127.112 302.505 125.576C302.505 123.187 302.548 121.224 302.633 119.688C302.804 118.152 303.102 116.488 303.529 114.696C304.297 111.453 305.406 107.784 306.857 103.688C308.393 99.592 310.142 95.5813 312.105 91.656C314.068 87.6453 316.244 83.9333 318.633 80.52C321.108 77.0213 323.71 74.2907 326.441 72.328C327.209 72.328 328.105 72.4133 329.129 72.584C330.153 72.6693 331.177 72.8827 332.201 73.224C333.31 73.5653 334.334 73.992 335.273 74.504C336.297 74.9307 337.15 75.528 337.833 76.296C337.065 77.1493 335.102 80.008 331.945 84.872C328.873 89.736 325.417 96.7333 321.577 105.864C321.15 106.803 320.638 108.168 320.041 109.96C319.444 111.752 318.846 113.629 318.249 115.592C317.652 117.555 317.14 119.475 316.713 121.352C316.372 123.229 316.201 124.723 316.201 125.832C316.201 126.515 316.286 127.027 316.457 127.368C316.713 127.709 316.926 127.965 317.097 128.136C318.377 127.624 319.998 126.216 321.961 123.912C323.924 121.608 326.654 118.067 330.153 113.288C331.006 112.093 331.988 110.728 333.097 109.192C334.292 107.656 335.486 106.035 336.681 104.328C337.876 102.536 338.985 100.701 340.009 98.824C341.118 96.9467 342.014 95.0693 342.697 93.192C343.038 92.168 343.465 90.9733 343.977 89.608C344.574 88.1573 345.257 86.664 346.025 85.128C346.878 83.592 347.817 82.056 348.841 80.52C349.95 78.8987 351.23 77.4053 352.681 76.04C353.79 76.04 354.985 76.168 356.265 76.424C357.545 76.68 358.74 77.0213 359.849 77.448C361.044 77.7893 362.068 78.216 362.921 78.728C363.774 79.1547 364.414 79.624 364.841 80.136C363.305 83.8907 361.598 87.6027 359.721 91.272C357.844 94.9413 356.094 98.568 354.473 102.152C352.852 105.651 351.486 109.149 350.377 112.648C349.268 116.147 348.713 119.56 348.713 122.888C348.713 124.68 348.841 126.259 349.097 127.624C349.438 128.904 349.78 130.013 350.121 130.952C350.462 131.805 350.761 132.531 351.017 133.128C351.358 133.725 351.529 134.237 351.529 134.664C351.529 134.749 351.444 134.877 351.273 135.048C351.188 135.133 351.102 135.176 351.017 135.176C350.42 135.176 349.652 135.048 348.713 134.792C347.774 134.536 346.708 134.152 345.513 133.64C344.404 133.213 343.252 132.701 342.057 132.104C340.948 131.507 339.881 130.867 338.857 130.184ZM394.695 73.224C396.402 73.224 398.364 73.736 400.583 74.76C402.802 75.784 404.764 77.1067 406.471 78.728C406.044 75.3147 405.49 72.1147 404.807 69.128C404.21 66.056 403.271 62.8987 401.991 59.656C400.796 56.4133 399.175 52.872 397.127 49.032C395.079 45.192 392.519 40.7973 389.447 35.848C389.703 35.08 390.258 34.184 391.111 33.16C392.05 32.136 393.074 31.1973 394.183 30.344C395.378 29.4053 396.572 28.5947 397.767 27.912C399.047 27.2293 400.242 26.8027 401.351 26.632C403.74 29.2773 406.002 32.6053 408.135 36.616C410.268 40.5413 412.146 44.808 413.767 49.416C415.388 53.9387 416.626 58.632 417.479 63.496C418.418 68.36 418.887 73.0107 418.887 77.448C418.887 81.8853 418.375 86.4507 417.351 91.144C416.412 95.8373 415.047 100.445 413.255 104.968C411.548 109.405 409.543 113.629 407.239 117.64C404.935 121.651 402.418 125.235 399.687 128.392C397.042 131.549 394.268 134.109 391.367 136.072C388.466 138.12 385.564 139.4 382.663 139.912C376.775 139.229 372.252 137.309 369.095 134.152C366.023 131.08 364.487 126.813 364.487 121.352C364.487 118.451 364.914 115.293 365.767 111.88C366.706 108.467 367.9 105.096 369.351 101.768C370.887 98.3547 372.636 95.0693 374.599 91.912C376.647 88.6693 378.78 85.768 380.999 83.208C383.303 80.648 385.607 78.472 387.911 76.68C390.215 74.888 392.476 73.736 394.695 73.224ZM381.639 134.792C384.626 133.768 387.612 131.507 390.599 128.008C393.586 124.509 396.274 120.413 398.663 115.72C401.052 110.941 402.972 105.864 404.423 100.488C405.959 95.0267 406.727 89.7787 406.727 84.744C406.727 83.2933 406.727 82.3973 406.727 82.056C406.727 81.7147 406.684 81.3733 406.599 81.032C404.551 81.8853 402.375 83.336 400.071 85.384C397.767 87.432 395.463 89.8213 393.159 92.552C390.855 95.1973 388.679 98.0987 386.631 101.256C384.583 104.413 382.748 107.571 381.127 110.728C379.506 113.885 378.226 116.915 377.287 119.816C376.348 122.717 375.879 125.277 375.879 127.496C375.879 131.763 377.799 134.195 381.639 134.792ZM470.294 113.16C468.331 119.389 466.369 125.064 464.406 130.184C462.443 135.304 460.353 139.997 458.134 144.264C455.915 148.616 453.526 152.584 450.966 156.168C448.406 159.837 445.59 163.293 442.518 166.536C438.593 170.632 434.539 173.747 430.358 175.88C426.177 178.099 421.995 179.208 417.814 179.208C415.681 179.208 413.547 178.952 411.414 178.44C409.366 178.013 407.446 177.373 405.654 176.52C403.777 175.752 402.155 174.813 400.79 173.704C399.339 172.68 398.315 171.571 397.718 170.376C397.718 169.352 398.315 168.456 399.51 167.688C400.534 168.627 401.387 169.352 402.07 169.864C402.753 170.376 403.435 170.803 404.118 171.144C404.715 171.485 405.398 171.699 406.166 171.784C406.849 171.869 407.659 171.912 408.598 171.912C413.462 171.912 418.198 170.461 422.806 167.56C427.499 164.744 431.894 160.691 435.99 155.4C440.171 150.195 443.969 143.837 447.382 136.328C450.795 128.904 453.697 120.584 456.086 111.368C454.977 113.075 453.611 115.165 451.99 117.64C450.369 120.115 448.577 122.589 446.614 125.064C444.651 127.453 442.603 129.629 440.47 131.592C438.422 133.555 436.417 134.877 434.454 135.56C433.089 135.475 431.638 135.176 430.102 134.664C428.651 134.237 427.243 133.597 425.878 132.744C424.598 131.891 423.446 130.867 422.422 129.672C421.398 128.477 420.715 127.112 420.374 125.576C420.374 123.101 420.459 121.139 420.63 119.688C420.801 118.152 421.099 116.488 421.526 114.696C422.294 111.453 423.403 107.784 424.854 103.688C426.39 99.592 428.139 95.5813 430.102 91.656C432.15 87.6453 434.369 83.9333 436.758 80.52C439.233 77.0213 441.793 74.2907 444.438 72.328C445.121 72.328 445.974 72.4133 446.998 72.584C448.022 72.6693 449.089 72.8827 450.198 73.224C451.307 73.5653 452.374 73.992 453.398 74.504C454.422 74.9307 455.318 75.528 456.086 76.296C455.147 77.1493 453.099 80.008 449.942 84.872C446.785 89.736 443.286 96.7333 439.446 105.864C439.019 106.803 438.507 108.168 437.91 109.96C437.313 111.752 436.715 113.629 436.118 115.592C435.606 117.555 435.137 119.475 434.71 121.352C434.283 123.229 434.07 124.723 434.07 125.832C434.07 126.515 434.155 127.027 434.326 127.368C434.582 127.709 434.795 127.965 434.966 128.136C436.502 127.88 438.55 126.643 441.11 124.424C443.67 122.12 446.571 118.579 449.814 113.8C451.862 110.728 453.739 107.699 455.446 104.712C457.153 101.64 458.817 98.568 460.438 95.496C462.145 92.424 463.894 89.2667 465.686 86.024C467.478 82.7813 469.398 79.4533 471.446 76.04C472.555 76.04 473.75 76.168 475.03 76.424C476.31 76.68 477.547 77.0213 478.742 77.448C479.937 77.7893 480.961 78.216 481.814 78.728C482.753 79.1547 483.435 79.624 483.862 80.136C481.217 85.768 478.742 91.272 476.438 96.648C474.134 102.024 472.086 107.528 470.294 113.16ZM556.507 141.192C554.544 142.216 552.454 142.728 550.235 142.728C547.504 142.387 544.859 141.704 542.299 140.68C539.824 139.656 537.99 138.419 536.795 136.968C536.112 132.787 535.558 128.947 535.131 125.448C534.704 121.949 534.363 118.664 534.107 115.592C533.851 112.435 533.68 109.448 533.595 106.632C533.51 103.731 533.467 100.829 533.467 97.928C533.467 94.088 533.51 90.0347 533.595 85.768C533.68 81.5013 533.766 76.9787 533.851 72.2C534.022 67.336 534.15 62.1733 534.235 56.712C534.32 51.1653 534.363 45.1493 534.363 38.664C535.472 38.664 537.136 39.0053 539.355 39.688C541.574 40.2853 543.75 41.0107 545.883 41.864C548.102 42.7173 550.064 43.6133 551.771 44.552C553.478 45.4053 554.416 46.1307 554.587 46.728C553.734 49.1173 552.966 52.232 552.283 56.072C551.686 59.912 551.174 64.1787 550.747 68.872C550.406 73.5653 550.15 78.5147 549.979 83.72C549.808 88.9253 549.723 94.088 549.723 99.208C549.723 103.048 549.766 106.504 549.851 109.576C549.936 112.563 550.022 115.293 550.107 117.768C550.278 120.157 550.491 122.419 550.747 124.552C551.003 126.6 551.302 128.648 551.643 130.696C554.032 123.443 556.635 116.189 559.451 108.936C562.352 101.683 565.296 94.728 568.283 88.072C571.355 81.3307 574.384 75.0587 577.371 69.256C580.358 63.4533 583.174 58.4187 585.819 54.152C588.55 49.8 590.982 46.3867 593.115 43.912C595.248 41.352 596.998 39.9867 598.363 39.816C599.302 39.9867 600.283 40.3707 601.307 40.968C602.416 41.48 603.44 42.12 604.379 42.888C605.318 43.656 606.171 44.5093 606.939 45.448C607.707 46.3867 608.304 47.3253 608.731 48.264C605.574 49.3733 602.16 51.976 598.491 56.072C594.907 60.168 591.28 65.1173 587.611 70.92C583.942 76.6373 580.358 82.9093 576.859 89.736C573.446 96.4773 570.331 103.091 567.515 109.576C564.784 116.061 562.438 122.12 560.475 127.752C558.512 133.384 557.19 137.864 556.507 141.192ZM591.169 124.424C591.169 123.656 591.212 122.717 591.297 121.608C591.468 120.413 591.724 118.877 592.065 117C592.406 115.037 592.833 112.691 593.345 109.96C593.942 107.229 594.668 103.944 595.521 100.104C595.692 99.2507 596.076 97.8853 596.673 96.008C597.27 94.1307 598.038 92.168 598.977 90.12C600.001 87.9867 601.196 85.9387 602.561 83.976C604.012 82.0133 605.718 80.5627 607.681 79.624C609.132 79.9653 611.052 80.8613 613.441 82.312C615.83 83.6773 617.878 85.5973 619.585 88.072C617.622 90.2907 615.958 92.5093 614.593 94.728C613.313 96.9467 612.118 99.2507 611.009 101.64C609.985 104.029 609.004 106.504 608.065 109.064C607.212 111.624 606.23 114.312 605.121 117.128C604.182 119.517 603.329 121.992 602.561 124.552C601.793 127.027 601.366 129.203 601.281 131.08C601.281 132.616 601.238 133.683 601.153 134.28C601.153 134.963 600.94 135.304 600.513 135.304C600.172 135.304 599.489 135.091 598.465 134.664C597.441 134.237 596.374 133.597 595.265 132.744C594.241 131.805 593.302 130.653 592.449 129.288C591.596 127.923 591.169 126.301 591.169 124.424ZM615.617 68.872C615.617 68.36 615.745 67.592 616.001 66.568C615.574 66.1413 615.19 65.5013 614.849 64.648C614.593 63.7947 614.465 63.0267 614.465 62.344C614.465 61.576 614.55 60.552 614.721 59.272C614.977 57.9067 615.276 56.456 615.617 54.92C615.958 53.384 616.385 51.8053 616.897 50.184C617.409 48.4773 617.921 46.9413 618.433 45.576C619.457 45.576 620.694 45.8747 622.145 46.472C623.681 46.984 625.217 47.7093 626.753 48.648C628.289 49.5013 629.697 50.4827 630.977 51.592C632.257 52.616 633.238 53.5973 633.921 54.536C632.982 55.4747 631.745 56.7973 630.209 58.504C628.673 60.1253 627.18 61.8747 625.729 63.752C624.278 65.544 622.956 67.2507 621.761 68.872C620.566 70.4933 619.798 71.6453 619.457 72.328C618.433 72.1573 617.537 71.7307 616.769 71.048C616.001 70.28 615.617 69.5547 615.617 68.872ZM636.395 137.48C631.531 136.968 627.648 134.835 624.747 131.08C621.846 127.325 620.395 122.547 620.395 116.744C620.395 113.331 620.907 109.789 621.931 106.12C622.955 102.451 624.406 98.9093 626.283 95.496C628.16 91.9973 630.379 88.712 632.939 85.64C635.499 82.568 638.272 79.9227 641.259 77.704C645.952 74.2053 650.347 72.456 654.443 72.456C657.174 73.9067 659.862 76.936 662.507 81.544C662.934 81.544 663.318 81.544 663.659 81.544C664 81.4587 664.384 81.416 664.811 81.416C669.334 81.416 671.595 85.4267 671.595 93.448C671.595 98.824 670.699 103.944 668.907 108.808C667.2 113.587 664.768 117.939 661.611 121.864C658.539 125.789 654.827 129.117 650.475 131.848C646.208 134.493 641.515 136.371 636.395 137.48ZM642.923 97.16C641.472 99.1227 640.107 101.256 638.827 103.56C637.547 105.864 636.438 108.211 635.499 110.6C634.56 112.904 633.835 115.165 633.323 117.384C632.811 119.517 632.555 121.437 632.555 123.144C632.555 125.192 632.896 127.155 633.579 129.032C634.262 130.909 635.03 131.976 635.883 132.232C639.723 131.379 643.222 129.8 646.379 127.496C649.622 125.107 652.395 122.163 654.699 118.664C657.088 115.165 658.923 111.197 660.203 106.76C661.568 102.323 662.251 97.5867 662.251 92.552C662.251 90.3333 662.123 88.584 661.867 87.304C661.611 86.024 661.184 84.9147 660.587 83.976C656.832 85.0853 653.462 86.8773 650.475 89.352C647.574 91.8267 645.056 94.4293 642.923 97.16ZM677.663 124.808C677.663 121.053 678.559 115.805 680.351 109.064C682.143 102.237 684.66 94.3013 687.903 85.256C693.194 70.8347 698.143 58.8453 702.751 49.288C707.444 39.6453 712.01 32.136 716.447 26.76C717.471 26.9307 718.708 27.3573 720.159 28.04C721.695 28.7227 723.188 29.4907 724.639 30.344C726.09 31.112 727.37 31.9227 728.479 32.776C729.674 33.6293 730.442 34.312 730.783 34.824C724.127 42.6747 718.282 51.1227 713.247 60.168C708.212 69.2133 703.604 79.5813 699.423 91.272C695.839 101.341 693.108 110.429 691.231 118.536C689.354 126.557 688.415 133.256 688.415 138.632C688.415 140.083 688.415 140.979 688.415 141.32C688.415 141.661 688.458 142.003 688.543 142.344C687.348 142.173 686.324 141.875 685.471 141.448C684.618 141.021 684.063 140.509 683.807 139.912C683.636 139.485 683.167 138.845 682.399 137.992C681.631 137.224 680.948 136.627 680.351 136.2C679.583 135.688 678.943 134.365 678.431 132.232C677.919 130.013 677.663 127.539 677.663 124.808ZM708.169 124.424C708.169 123.656 708.212 122.717 708.297 121.608C708.468 120.413 708.724 118.877 709.065 117C709.406 115.037 709.833 112.691 710.345 109.96C710.942 107.229 711.668 103.944 712.521 100.104C712.692 99.2507 713.076 97.8853 713.673 96.008C714.27 94.1307 715.038 92.168 715.977 90.12C717.001 87.9867 718.196 85.9387 719.561 83.976C721.012 82.0133 722.718 80.5627 724.681 79.624C726.132 79.9653 728.052 80.8613 730.441 82.312C732.83 83.6773 734.878 85.5973 736.585 88.072C734.622 90.2907 732.958 92.5093 731.593 94.728C730.313 96.9467 729.118 99.2507 728.009 101.64C726.985 104.029 726.004 106.504 725.065 109.064C724.212 111.624 723.23 114.312 722.121 117.128C721.182 119.517 720.329 121.992 719.561 124.552C718.793 127.027 718.366 129.203 718.281 131.08C718.281 132.616 718.238 133.683 718.153 134.28C718.153 134.963 717.94 135.304 717.513 135.304C717.172 135.304 716.489 135.091 715.465 134.664C714.441 134.237 713.374 133.597 712.265 132.744C711.241 131.805 710.302 130.653 709.449 129.288C708.596 127.923 708.169 126.301 708.169 124.424ZM732.617 68.872C732.617 68.36 732.745 67.592 733.001 66.568C732.574 66.1413 732.19 65.5013 731.849 64.648C731.593 63.7947 731.465 63.0267 731.465 62.344C731.465 61.576 731.55 60.552 731.721 59.272C731.977 57.9067 732.276 56.456 732.617 54.92C732.958 53.384 733.385 51.8053 733.897 50.184C734.409 48.4773 734.921 46.9413 735.433 45.576C736.457 45.576 737.694 45.8747 739.145 46.472C740.681 46.984 742.217 47.7093 743.753 48.648C745.289 49.5013 746.697 50.4827 747.977 51.592C749.257 52.616 750.238 53.5973 750.921 54.536C749.982 55.4747 748.745 56.7973 747.209 58.504C745.673 60.1253 744.18 61.8747 742.729 63.752C741.278 65.544 739.956 67.2507 738.761 68.872C737.566 70.4933 736.798 71.6453 736.457 72.328C735.433 72.1573 734.537 71.7307 733.769 71.048C733.001 70.28 732.617 69.5547 732.617 68.872ZM759.027 70.92C761.246 71.6027 763.336 73.1387 765.299 75.528C767.262 77.832 768.712 80.392 769.651 83.208C768.712 85.512 767.262 88.2853 765.299 91.528C763.336 94.7707 761.374 98.0987 759.411 101.512C757.448 104.84 755.656 108.04 754.035 111.112C752.499 114.099 751.603 116.573 751.347 118.536C752.712 117.085 754.206 115.421 755.827 113.544C757.534 111.581 759.155 109.661 760.691 107.784C762.312 105.821 763.806 104.072 765.171 102.536C766.536 100.915 767.603 99.72 768.371 98.952C769.992 97.2453 771.912 95.2827 774.131 93.064C776.35 90.76 778.654 88.6267 781.043 86.664C783.518 84.616 785.992 82.9093 788.467 81.544C790.942 80.0933 793.203 79.368 795.251 79.368C797.47 79.368 799.304 80.136 800.755 81.672C802.291 83.1227 803.486 84.6587 804.339 86.28C804.339 86.4507 803.998 86.7067 803.315 87.048C802.718 87.304 801.822 88.1147 800.627 89.48C799.432 91.016 798.067 93.1493 796.531 95.88C795.08 98.5253 793.63 101.427 792.179 104.584C790.814 107.656 789.662 110.813 788.723 114.056C787.784 117.299 787.315 120.243 787.315 122.888C787.315 125.021 787.571 126.387 788.083 126.984C788.68 127.581 789.491 127.88 790.515 127.88C791.454 127.88 792.435 127.667 793.459 127.24C794.483 126.813 795.294 126.6 795.891 126.6C796.232 126.771 796.488 127.155 796.659 127.752C796.915 128.264 797.043 128.733 797.043 129.16C796.36 129.757 795.55 130.355 794.611 130.952C793.672 131.549 792.691 132.104 791.667 132.616C790.643 133.128 789.619 133.555 788.595 133.896C787.656 134.237 786.803 134.408 786.035 134.408C783.56 134.408 781.512 134.024 779.891 133.256C778.355 132.573 777.118 131.635 776.179 130.44C775.326 129.245 774.728 127.837 774.387 126.216C774.046 124.509 773.875 122.717 773.875 120.84C773.875 119.816 773.96 118.664 774.131 117.384C774.302 116.104 774.643 114.611 775.155 112.904C775.667 111.112 776.392 109.021 777.331 106.632C778.27 104.157 779.464 101.213 780.915 97.8C780.744 97.8 779.592 98.3973 777.459 99.592C775.326 100.787 773.022 102.621 770.547 105.096C766.536 108.936 762.91 112.733 759.667 116.488C756.51 120.243 753.267 124.424 749.939 129.032C748.062 131.677 746.398 133.896 744.947 135.688C743.582 137.565 742.387 138.803 741.363 139.4C739.571 138.376 738.248 136.925 737.395 135.048C736.542 133.256 735.902 131.379 735.475 129.416C735.475 127.795 735.688 125.747 736.115 123.272C736.627 120.797 737.267 118.067 738.035 115.08C738.888 112.008 739.912 108.808 741.107 105.48C742.302 102.152 743.624 98.824 745.075 95.496C748.318 87.9867 751.262 82.0987 753.907 77.832C756.638 73.5653 758.344 71.2613 759.027 70.92Z" fill="#828282"/>
</svg>
