<svg width="810" height="186" viewBox="0 0 810 186" fill="none" xmlns="http://www.w3.org/2000/svg">
<path d="M95.5687 163.624L93.0515 161.875L161.466 58.5641L163.969 60.3129L95.5687 163.624Z" fill="#F7CF92"/>
<path d="M161.466 58.5641C161.48 58.5641 168.258 63.2613 168.258 63.2613L98.2125 169.824L102.333 174.68L172.772 67.5395C175.95 62.3508 174.263 60.0383 172.28 58.7375C170.592 57.6535 169.256 57.9137 170.128 57.1332C170.845 56.4684 172.041 55.5434 171.633 54.734C171.211 53.8957 170.466 52.8551 167.273 54.4449C163.758 56.1938 161.311 58.4629 161.466 58.5641Z" fill="#FF7043"/>
<path d="M107.283 167.15C105.609 166.023 101.813 164.173 100.35 166.514L100.266 166.659C99.7453 167.454 99.5485 167.815 98.8032 167.324L95.7938 165.358C95.2594 164.997 95.0344 164.419 95.5547 163.624L95.8782 163.118C96.511 162.164 95.8641 160.618 94.4719 159.678L90.9422 165.315C89.986 166.789 90.3938 168.263 91.6453 169.116L96.6797 172.426L95.836 173.712C95.1328 174.811 95.5547 176.386 96.8063 177.239L97.2141 177.513C98.4656 178.366 100.055 178.164 100.772 177.065L102.248 174.811L107.283 167.15Z" fill="#455A64"/>
<path d="M127.097 34.8609C126.281 34.7886 125.466 35.0343 124.748 35.3812C122.794 36.3351 121.359 35.5836 120.67 34.7308C119.292 32.9965 119.925 30.1058 122.105 28.2703C124.284 26.4347 127.167 26.3625 128.545 28.0968C129.122 28.8195 129.333 29.7734 129.263 30.6984C129.22 31.1465 129.023 31.4355 129.248 31.8691C129.445 32.2449 130.106 32.7218 131.006 33.5023C131.386 33.8347 130.092 36.075 129.642 35.8726C127.702 34.9621 127.448 34.8898 127.097 34.8609Z" fill="#455A64"/>
<path d="M140.1 27.2448C142.275 25.4143 142.918 22.5235 141.536 20.7879C140.153 19.0524 137.269 19.1293 135.093 20.9598C132.918 22.7903 132.275 25.6811 133.658 27.4167C135.04 29.1522 137.924 29.0753 140.1 27.2448Z" fill="#455A64"/>
<path d="M105.356 77.064C104.934 76.6449 104.527 76.2835 104.105 75.8933L22.5142 157.626C30.0376 166.919 41.2595 175.634 55.561 177.788C68.5407 179.739 76.711 172.83 81.5907 161.745C83.2079 158.074 86.0064 153.232 88.4814 152.148C89.4095 151.743 90.661 151.064 90.2814 149.749C90.1126 149.156 89.6064 148.997 88.7767 148.202C88.1157 147.566 87.4267 146.627 87.272 146.425C83.0392 140.961 80.1282 137.579 86.2454 130.873C92.2079 124.326 99.0564 124.167 102.136 127.144C102.699 127.679 103.472 127.881 104.175 127.578C104.274 127.534 104.358 127.491 104.456 127.462C105.399 127.057 105.82 125.988 105.553 124.976C104.991 122.938 105.413 121.146 106.214 119.354C108.591 114.064 129.572 101.128 105.356 77.064Z" fill="#A65F3E"/>
<path d="M140.934 39.775L98.9579 83.8426" stroke="#FF7043" stroke-width="15.7312" stroke-miterlimit="10"/>
<path d="M100.294 71.355C73.7438 47.9843 62.7328 77.7577 54.2672 75.5464C52.2563 75.0261 50.9907 77.1796 51.9188 79.0585C52.3547 79.9402 55.4063 84.9265 50.0344 91.1269C46.1532 95.5929 42.1453 96.7636 38.4328 95.5784C37.3219 95.2171 36.2532 94.4366 35.2969 94.0898C34.3407 93.7429 33.1453 94.0609 32.8782 96.9515C32.7235 98.657 31.8797 99.8855 29.3344 100.941C24.3704 102.978 19.9125 104.886 15.8625 108.08C7.15785 114.96 2.78441 125.337 8.31097 138.056C13.8375 150.775 28.7016 169.347 50.611 172.787C63.7454 174.854 71.9578 167.916 76.8235 156.759C78.4266 153.073 80.6485 148.679 83.1516 147.61C84.0938 147.205 85.0641 146.844 85.0922 145.63C85.1203 144.459 83.3203 143.794 81.8016 142.002C78.1032 137.637 75.2907 132.246 81.3797 125.569C87.3703 119.007 94.2891 118.877 97.425 121.912C97.9875 122.461 98.7891 122.664 99.5063 122.36C99.5907 122.317 99.675 122.288 99.7594 122.244C100.716 121.84 101.152 120.756 100.856 119.73C100.28 117.663 100.688 115.871 101.489 114.05C103.809 108.76 128.278 95.9831 100.294 71.355Z" fill="#FF7043"/>
<path d="M21.1219 116.752C24.2157 119.845 26.6485 123.921 27.1829 128.127C27.8016 133.113 25.7204 137.565 23.0063 141.062C21.9938 142.378 20.4469 143.837 20.2079 146.641C19.7579 151.859 23.2032 153.015 24.0047 154.258C24.8063 155.501 25.2141 157.264 24.3141 158.117C23.6532 158.739 22.5141 158.594 21.6282 158.03C20.7422 157.467 20.1376 156.513 19.4485 155.689C10.8422 145.5 5.0485 137.276 5.85006 124.037C6.00475 121.507 9.60475 111.26 12.2907 110.465C14.8079 109.699 19.2094 114.845 21.1219 116.752Z" fill="#455A64"/>
<path d="M45.675 114.295L39.0797 128.763" stroke="#CFD8DC" stroke-width="3.125" stroke-miterlimit="10"/>
<path d="M49.0079 116.348L41.0907 130.526" stroke="#CFD8DC" stroke-width="3.125" stroke-miterlimit="10"/>
<path d="M52.7906 118.66L42.8906 132.13" stroke="#CFD8DC" stroke-width="3.125" stroke-miterlimit="10"/>
<path d="M55.3359 121.233L45.1406 134.443" stroke="#CFD8DC" stroke-width="3.125" stroke-miterlimit="10"/>
<path d="M146.18 43.8074C150.708 37.5492 154.73 36.6964 160.65 35.0199C167.513 33.0832 172.8 31.8691 174.066 24.498C175.683 15.1179 166.303 7.19763 158.555 6.89411C155.011 6.74958 150.103 9.30778 150.005 14.1062C149.934 17.705 152.142 19.4105 153.52 20.7257C149.583 24.1367 130.219 24.5269 127.8 37.9539C126.619 44.5011 127.702 43.8941 132.806 47.175C134.888 48.5046 141.089 50.8316 146.18 43.8074Z" fill="#FF7043"/>
<path d="M155.841 22.4457C155.841 22.4457 159.469 25.4086 160.538 25.9433C160.538 25.9433 149.991 30.3226 144.83 32.6207C136.28 36.4363 134.634 44.1254 134.634 44.1254C132.005 47.1894 81.3797 99.5097 81.3797 99.5097L68.2734 89.4359C68.2734 89.4359 126.197 39.0668 134.353 32.4472C140.147 27.7644 155.841 22.4457 155.841 22.4457Z" fill="#455A64"/>
<path d="M163.983 28.8196C160.495 28.0824 159.975 25.5676 159.975 25.5676C159.975 25.5676 163.688 28.7617 167.189 26.2035C168.539 25.2207 168.75 23.9778 168.666 23.443C168.3 21.0004 165.839 21.911 165.797 21.9399C165.15 22.3735 164.644 22.1422 164.222 21.6653C163.8 21.2028 164.095 20.35 164.742 19.9164C166.641 18.6735 171.464 19.0203 171.084 24.1367C170.761 28.7907 166.374 29.3399 163.983 28.8196Z" fill="#37474F"/>
<path d="M70.7063 141.829C71.325 140.672 70.6359 138.851 69.2156 138.562L69.2859 138.49C68.2313 138.36 67.2047 138.981 66.8672 139.95C61.6781 136.64 69.2297 128.676 71.5078 125.916C76.1625 120.25 77.3578 115.452 73.2656 112.836C73.2516 112.836 71.7609 111.809 70.8469 112.286C69.3984 113.023 69.1172 114.295 69.2578 114.816C69.6938 116.463 71.8172 117.865 73.1391 115.553C74.925 121.536 63.3938 127.621 62.8734 135.166C61.9734 138.837 66.4734 144.242 69.8344 142.855L69.8063 142.797C70.1859 142.566 70.5094 142.233 70.7063 141.829Z" fill="#37474F"/>
<path d="M31.6266 104.351C32.5688 103.672 34.2141 104.12 34.6219 105.378L34.6781 105.305C34.9031 106.259 34.4813 107.257 33.6938 107.676C37.1531 112.084 43.2 104.351 45.3234 101.996C49.6969 97.1538 53.7188 95.564 56.4609 99.0327C56.475 99.0327 57.5156 100.305 57.2203 101.186C56.7422 102.588 55.6875 102.978 55.2094 102.906C53.7328 102.675 52.2844 100.883 54.1406 99.4374C48.7547 98.4112 44.7891 109.584 38.3203 110.855C35.2406 112.055 30.0516 108.5 30.8672 105.276L30.9234 105.291C31.0359 104.915 31.2891 104.568 31.6266 104.351Z" fill="#37474F"/>
<path d="M173.503 18.1676C172.294 16.3031 171 16.0863 169.2 15.7828C167.4 15.4937 165.502 15.7539 164.166 16.5922C159.455 19.4539 159.609 23.2262 159.975 25.582C158.597 24.6281 156.783 19.7719 161.058 15.4359C163.181 13.2824 167.119 12.5887 169.777 13.6293C172.603 14.7711 173.503 18.1676 173.503 18.1676Z" fill="#F7CF92"/>
<path d="M48.15 136.582C48.15 136.582 44.9297 140.152 41.4422 141.742C39.1078 142.811 38.3484 143.375 36.2812 144.589C34.2141 145.803 25.7344 156.455 25.7344 156.455C25.2703 157.163 24.7922 157.9 23.9344 158.175C23.0766 158.45 20.8125 155.776 20.8125 155.776C20.8125 155.776 28.3781 140.716 31.6828 134.414C34.4813 129.066 37.8281 126.479 37.8281 126.479L48.15 136.582Z" fill="#455A64"/>
<path d="M45.675 114.295L131.077 36.6387" stroke="#CFD8DC" stroke-width="3.125" stroke-miterlimit="10" stroke-linecap="round"/>
<path d="M49.0078 116.348L132.441 37.9972" stroke="#CFD8DC" stroke-width="3.125" stroke-miterlimit="10" stroke-linecap="round"/>
<path d="M52.7906 118.66L133.777 39.3414" stroke="#CFD8DC" stroke-width="3.125" stroke-miterlimit="10" stroke-linecap="round"/>
<path d="M55.3359 121.233L135.267 40.6855" stroke="#CFD8DC" stroke-width="3.125" stroke-miterlimit="10" stroke-linecap="round"/>
<path d="M57.5298 129.37L41.5126 114.425C41.5126 114.425 45.7173 110.696 48.3188 113.385C48.3188 113.385 54.0423 118.024 56.8126 121.117C59.5688 124.21 57.5298 129.37 57.5298 129.37Z" fill="#A65F3E"/>
<path d="M155.672 49.6319C153.38 51.323 150.525 51.612 149.231 49.8054C147.713 47.7097 149.611 45.7585 148.444 43.7062C148.078 43.0558 147.53 42.5355 147.192 41.8706C146.855 41.2058 146.784 40.2952 147.333 39.7894C148.556 38.6909 149.766 39.9917 150.131 40.353C152.761 42.9401 152.958 42.1597 154.856 42.0007C157.374 41.7984 158.611 43.2437 158.597 44.848C158.583 46.5245 157.219 48.4757 155.672 49.6319Z" fill="#455A64"/>
<path d="M168.061 43.2726C165.881 45.1081 162.998 45.1804 161.62 43.446C161.002 42.6656 160.819 41.914 160.931 40.6566C161.142 38.1995 160.538 37.13 159.947 36.6242C159.595 36.3206 159.314 35.9738 158.991 35.6847C158.4 35.1788 158.47 34.514 158.681 34.0949C158.892 33.6757 159.666 33.3288 160.116 33.3722C160.931 33.4589 161.578 34.0804 162.239 34.6007C164.503 36.4218 165.67 35.8148 166.978 35.8003C168.286 35.7859 169.116 36.3351 169.495 36.812C170.888 38.5464 170.241 41.4515 168.061 43.2726Z" fill="#455A64"/>
<path d="M261.384 52.728C261.64 54.1787 261.811 55.2027 261.896 55.8C262.067 56.312 262.152 57.0373 262.152 57.976C262.152 60.792 261.512 63.4373 260.232 65.912C259.037 68.3013 257.373 70.008 255.24 71.032C253.533 68.728 251.443 66.7653 248.968 65.144C246.493 63.4373 243.763 62.072 240.776 61.048C237.875 59.9387 234.845 59.128 231.688 58.616C228.531 58.104 225.459 57.848 222.472 57.848C219.485 57.848 216.669 58.104 214.024 58.616C211.464 59.0427 209.16 59.6827 207.112 60.536C205.149 61.304 203.571 62.2853 202.376 63.48C201.267 64.6747 200.712 66.04 200.712 67.576C200.968 69.4533 202.12 71.3733 204.168 73.336C206.216 75.2133 208.733 77.0907 211.72 78.968C214.707 80.76 217.992 82.552 221.576 84.344C225.245 86.136 228.829 87.8427 232.328 89.464C236.68 91.512 240.435 93.432 243.592 95.224C246.749 96.9307 249.352 98.8507 251.4 100.984C253.448 103.032 254.984 105.379 256.008 108.024C257.032 110.669 257.544 113.869 257.544 117.624C257.544 121.976 256.819 126.072 255.368 129.912C253.917 133.667 251.784 136.952 248.968 139.768C246.237 142.584 242.909 144.76 238.984 146.296C235.059 147.917 230.664 148.728 225.8 148.728C221.021 148.728 215.859 148.003 210.312 146.552C204.765 145.101 199.56 143.096 194.696 140.536C189.917 138.061 185.907 135.203 182.664 131.96C179.507 128.632 177.928 125.133 177.928 121.464C177.928 119.757 178.397 117.581 179.336 114.936C180.36 112.291 182.152 109.517 184.712 106.616C184.968 109.176 186.333 112.205 188.808 115.704C191.368 119.203 195.165 122.445 200.2 125.432C204.893 128.163 209.715 130.168 214.664 131.448C219.699 132.643 224.392 133.24 228.744 133.24C233.523 133.24 237.405 132.643 240.392 131.448C243.379 130.253 245.725 128.845 247.432 127.224C249.139 125.517 250.333 123.811 251.016 122.104C251.699 120.397 252.083 119.032 252.168 118.008C252.083 116.301 251.272 114.68 249.736 113.144C248.285 111.523 246.28 109.987 243.72 108.536C241.245 107 238.344 105.464 235.016 103.928C231.688 102.392 228.232 100.856 224.648 99.32C219.272 96.9307 214.621 94.712 210.696 92.664C206.856 90.5307 203.656 88.3973 201.096 86.264C198.621 84.0453 196.787 81.7413 195.592 79.352C194.483 76.9627 193.928 74.232 193.928 71.16C193.928 66.3813 195.379 61.8587 198.28 57.592C201.181 53.3253 205.363 50.0827 210.824 47.864C213.555 46.6693 216.456 45.816 219.528 45.304C222.685 44.792 225.757 44.536 228.744 44.536C234.376 44.536 239.88 45.304 245.256 46.84C250.632 48.376 256.008 50.3387 261.384 52.728ZM271.593 89.976C271.166 89.464 270.782 88.3973 270.441 86.776C270.1 85.0693 269.929 83.6187 269.929 82.424C272.148 82.5947 274.281 82.7653 276.329 82.936C278.377 83.0213 280.254 83.1067 281.961 83.192C283.241 80.632 284.606 78.1147 286.057 75.64C287.593 73.08 289.044 70.776 290.409 68.728C291.86 66.5947 293.182 64.8027 294.377 63.352C295.657 61.9013 296.638 60.9627 297.321 60.536C298.174 60.536 299.241 60.7067 300.521 61.048C301.886 61.304 303.252 61.688 304.617 62.2C305.982 62.6267 307.22 63.096 308.329 63.608C309.438 64.12 310.206 64.632 310.633 65.144C308.073 68.3867 305.854 71.416 303.977 74.232C302.185 76.9627 300.222 80.12 298.089 83.704C299.796 83.704 301.502 83.6613 303.209 83.576C305.001 83.4907 306.793 83.3627 308.585 83.192C309.012 83.6187 309.353 84.1733 309.609 84.856C309.865 85.4533 309.993 86.0933 309.993 86.776C305.812 88.312 300.734 89.1653 294.761 89.336C292.628 93.432 290.708 97.528 289.001 101.624C287.38 105.635 285.972 109.517 284.777 113.272C283.668 117.027 282.772 120.568 282.089 123.896C281.492 127.224 281.193 130.211 281.193 132.856C281.193 136.611 282.601 138.701 285.417 139.128C287.977 138.787 290.409 138.147 292.713 137.208C295.017 136.269 297.065 135.075 298.857 133.624C299.369 134.392 299.668 135.032 299.753 135.544C299.241 136.312 298.345 137.208 297.065 138.232C295.87 139.256 294.548 140.237 293.097 141.176C291.646 142.2 290.238 143.053 288.873 143.736C287.508 144.419 286.484 144.803 285.801 144.888C283.668 144.803 281.534 144.333 279.401 143.48C277.268 142.627 275.305 141.56 273.513 140.28C271.806 139 270.398 137.592 269.289 136.056C268.18 134.435 267.625 132.856 267.625 131.32C267.625 129.272 267.881 126.712 268.393 123.64C268.99 120.483 269.801 117.069 270.825 113.4C271.849 109.731 273.044 105.891 274.409 101.88C275.774 97.8693 277.268 93.9013 278.889 89.976H271.593ZM343.857 136.184C342.236 134.819 341.126 133.112 340.529 131.064C340.017 129.016 339.761 127.267 339.761 125.816C339.761 124.024 339.974 122.488 340.401 121.208C340.06 121.208 339.292 121.891 338.097 123.256C336.902 124.621 335.58 126.243 334.129 128.12C332.764 129.997 331.398 131.832 330.033 133.624C328.668 135.416 327.644 136.739 326.961 137.592C325.852 138.787 324.785 139.725 323.761 140.408C322.822 141.091 322.054 141.475 321.457 141.56C320.092 141.475 318.641 141.176 317.105 140.664C315.654 140.237 314.246 139.597 312.881 138.744C311.601 137.891 310.449 136.867 309.425 135.672C308.486 134.477 307.846 133.112 307.505 131.576C307.505 129.187 307.548 127.224 307.633 125.688C307.804 124.152 308.102 122.488 308.529 120.696C309.297 117.453 310.406 113.784 311.857 109.688C313.393 105.592 315.142 101.581 317.105 97.656C319.068 93.6453 321.244 89.9333 323.633 86.52C326.108 83.0213 328.71 80.2907 331.441 78.328C332.209 78.328 333.105 78.4133 334.129 78.584C335.153 78.6693 336.177 78.8827 337.201 79.224C338.31 79.5653 339.334 79.992 340.273 80.504C341.297 80.9307 342.15 81.528 342.833 82.296C342.065 83.1493 340.102 86.008 336.945 90.872C333.873 95.736 330.417 102.733 326.577 111.864C326.15 112.803 325.638 114.168 325.041 115.96C324.444 117.752 323.846 119.629 323.249 121.592C322.652 123.555 322.14 125.475 321.713 127.352C321.372 129.229 321.201 130.723 321.201 131.832C321.201 132.515 321.286 133.027 321.457 133.368C321.713 133.709 321.926 133.965 322.097 134.136C323.377 133.624 324.998 132.216 326.961 129.912C328.924 127.608 331.654 124.067 335.153 119.288C336.006 118.093 336.988 116.728 338.097 115.192C339.292 113.656 340.486 112.035 341.681 110.328C342.876 108.536 343.985 106.701 345.009 104.824C346.118 102.947 347.014 101.069 347.697 99.192C348.038 98.168 348.465 96.9733 348.977 95.608C349.574 94.1573 350.257 92.664 351.025 91.128C351.878 89.592 352.817 88.056 353.841 86.52C354.95 84.8987 356.23 83.4053 357.681 82.04C358.79 82.04 359.985 82.168 361.265 82.424C362.545 82.68 363.74 83.0213 364.849 83.448C366.044 83.7893 367.068 84.216 367.921 84.728C368.774 85.1547 369.414 85.624 369.841 86.136C368.305 89.8907 366.598 93.6027 364.721 97.272C362.844 100.941 361.094 104.568 359.473 108.152C357.852 111.651 356.486 115.149 355.377 118.648C354.268 122.147 353.713 125.56 353.713 128.888C353.713 130.68 353.841 132.259 354.097 133.624C354.438 134.904 354.78 136.013 355.121 136.952C355.462 137.805 355.761 138.531 356.017 139.128C356.358 139.725 356.529 140.237 356.529 140.664C356.529 140.749 356.444 140.877 356.273 141.048C356.188 141.133 356.102 141.176 356.017 141.176C355.42 141.176 354.652 141.048 353.713 140.792C352.774 140.536 351.708 140.152 350.513 139.64C349.404 139.213 348.252 138.701 347.057 138.104C345.948 137.507 344.881 136.867 343.857 136.184ZM399.695 79.224C401.402 79.224 403.364 79.736 405.583 80.76C407.802 81.784 409.764 83.1067 411.471 84.728C411.044 81.3147 410.49 78.1147 409.807 75.128C409.21 72.056 408.271 68.8987 406.991 65.656C405.796 62.4133 404.175 58.872 402.127 55.032C400.079 51.192 397.519 46.7973 394.447 41.848C394.703 41.08 395.258 40.184 396.111 39.16C397.05 38.136 398.074 37.1973 399.183 36.344C400.378 35.4053 401.572 34.5947 402.767 33.912C404.047 33.2293 405.242 32.8027 406.351 32.632C408.74 35.2773 411.002 38.6053 413.135 42.616C415.268 46.5413 417.146 50.808 418.767 55.416C420.388 59.9387 421.626 64.632 422.479 69.496C423.418 74.36 423.887 79.0107 423.887 83.448C423.887 87.8853 423.375 92.4507 422.351 97.144C421.412 101.837 420.047 106.445 418.255 110.968C416.548 115.405 414.543 119.629 412.239 123.64C409.935 127.651 407.418 131.235 404.687 134.392C402.042 137.549 399.268 140.109 396.367 142.072C393.466 144.12 390.564 145.4 387.663 145.912C381.775 145.229 377.252 143.309 374.095 140.152C371.023 137.08 369.487 132.813 369.487 127.352C369.487 124.451 369.914 121.293 370.767 117.88C371.706 114.467 372.9 111.096 374.351 107.768C375.887 104.355 377.636 101.069 379.599 97.912C381.647 94.6693 383.78 91.768 385.999 89.208C388.303 86.648 390.607 84.472 392.911 82.68C395.215 80.888 397.476 79.736 399.695 79.224ZM386.639 140.792C389.626 139.768 392.612 137.507 395.599 134.008C398.586 130.509 401.274 126.413 403.663 121.72C406.052 116.941 407.972 111.864 409.423 106.488C410.959 101.027 411.727 95.7787 411.727 90.744C411.727 89.2933 411.727 88.3973 411.727 88.056C411.727 87.7147 411.684 87.3733 411.599 87.032C409.551 87.8853 407.375 89.336 405.071 91.384C402.767 93.432 400.463 95.8213 398.159 98.552C395.855 101.197 393.679 104.099 391.631 107.256C389.583 110.413 387.748 113.571 386.127 116.728C384.506 119.885 383.226 122.915 382.287 125.816C381.348 128.717 380.879 131.277 380.879 133.496C380.879 137.763 382.799 140.195 386.639 140.792ZM475.294 119.16C473.331 125.389 471.369 131.064 469.406 136.184C467.443 141.304 465.353 145.997 463.134 150.264C460.915 154.616 458.526 158.584 455.966 162.168C453.406 165.837 450.59 169.293 447.518 172.536C443.593 176.632 439.539 179.747 435.358 181.88C431.177 184.099 426.995 185.208 422.814 185.208C420.681 185.208 418.547 184.952 416.414 184.44C414.366 184.013 412.446 183.373 410.654 182.52C408.777 181.752 407.155 180.813 405.79 179.704C404.339 178.68 403.315 177.571 402.718 176.376C402.718 175.352 403.315 174.456 404.51 173.688C405.534 174.627 406.387 175.352 407.07 175.864C407.753 176.376 408.435 176.803 409.118 177.144C409.715 177.485 410.398 177.699 411.166 177.784C411.849 177.869 412.659 177.912 413.598 177.912C418.462 177.912 423.198 176.461 427.806 173.56C432.499 170.744 436.894 166.691 440.99 161.4C445.171 156.195 448.969 149.837 452.382 142.328C455.795 134.904 458.697 126.584 461.086 117.368C459.977 119.075 458.611 121.165 456.99 123.64C455.369 126.115 453.577 128.589 451.614 131.064C449.651 133.453 447.603 135.629 445.47 137.592C443.422 139.555 441.417 140.877 439.454 141.56C438.089 141.475 436.638 141.176 435.102 140.664C433.651 140.237 432.243 139.597 430.878 138.744C429.598 137.891 428.446 136.867 427.422 135.672C426.398 134.477 425.715 133.112 425.374 131.576C425.374 129.101 425.459 127.139 425.63 125.688C425.801 124.152 426.099 122.488 426.526 120.696C427.294 117.453 428.403 113.784 429.854 109.688C431.39 105.592 433.139 101.581 435.102 97.656C437.15 93.6453 439.369 89.9333 441.758 86.52C444.233 83.0213 446.793 80.2907 449.438 78.328C450.121 78.328 450.974 78.4133 451.998 78.584C453.022 78.6693 454.089 78.8827 455.198 79.224C456.307 79.5653 457.374 79.992 458.398 80.504C459.422 80.9307 460.318 81.528 461.086 82.296C460.147 83.1493 458.099 86.008 454.942 90.872C451.785 95.736 448.286 102.733 444.446 111.864C444.019 112.803 443.507 114.168 442.91 115.96C442.313 117.752 441.715 119.629 441.118 121.592C440.606 123.555 440.137 125.475 439.71 127.352C439.283 129.229 439.07 130.723 439.07 131.832C439.07 132.515 439.155 133.027 439.326 133.368C439.582 133.709 439.795 133.965 439.966 134.136C441.502 133.88 443.55 132.643 446.11 130.424C448.67 128.12 451.571 124.579 454.814 119.8C456.862 116.728 458.739 113.699 460.446 110.712C462.153 107.64 463.817 104.568 465.438 101.496C467.145 98.424 468.894 95.2667 470.686 92.024C472.478 88.7813 474.398 85.4533 476.446 82.04C477.555 82.04 478.75 82.168 480.03 82.424C481.31 82.68 482.547 83.0213 483.742 83.448C484.937 83.7893 485.961 84.216 486.814 84.728C487.753 85.1547 488.435 85.624 488.862 86.136C486.217 91.768 483.742 97.272 481.438 102.648C479.134 108.024 477.086 113.528 475.294 119.16ZM561.507 147.192C559.544 148.216 557.454 148.728 555.235 148.728C552.504 148.387 549.859 147.704 547.299 146.68C544.824 145.656 542.99 144.419 541.795 142.968C541.112 138.787 540.558 134.947 540.131 131.448C539.704 127.949 539.363 124.664 539.107 121.592C538.851 118.435 538.68 115.448 538.595 112.632C538.51 109.731 538.467 106.829 538.467 103.928C538.467 100.088 538.51 96.0347 538.595 91.768C538.68 87.5013 538.766 82.9787 538.851 78.2C539.022 73.336 539.15 68.1733 539.235 62.712C539.32 57.1653 539.363 51.1493 539.363 44.664C540.472 44.664 542.136 45.0053 544.355 45.688C546.574 46.2853 548.75 47.0107 550.883 47.864C553.102 48.7173 555.064 49.6133 556.771 50.552C558.478 51.4053 559.416 52.1307 559.587 52.728C558.734 55.1173 557.966 58.232 557.283 62.072C556.686 65.912 556.174 70.1787 555.747 74.872C555.406 79.5653 555.15 84.5147 554.979 89.72C554.808 94.9253 554.723 100.088 554.723 105.208C554.723 109.048 554.766 112.504 554.851 115.576C554.936 118.563 555.022 121.293 555.107 123.768C555.278 126.157 555.491 128.419 555.747 130.552C556.003 132.6 556.302 134.648 556.643 136.696C559.032 129.443 561.635 122.189 564.451 114.936C567.352 107.683 570.296 100.728 573.283 94.072C576.355 87.3307 579.384 81.0587 582.371 75.256C585.358 69.4533 588.174 64.4187 590.819 60.152C593.55 55.8 595.982 52.3867 598.115 49.912C600.248 47.352 601.998 45.9867 603.363 45.816C604.302 45.9867 605.283 46.3707 606.307 46.968C607.416 47.48 608.44 48.12 609.379 48.888C610.318 49.656 611.171 50.5093 611.939 51.448C612.707 52.3867 613.304 53.3253 613.731 54.264C610.574 55.3733 607.16 57.976 603.491 62.072C599.907 66.168 596.28 71.1173 592.611 76.92C588.942 82.6373 585.358 88.9093 581.859 95.736C578.446 102.477 575.331 109.091 572.515 115.576C569.784 122.061 567.438 128.12 565.475 133.752C563.512 139.384 562.19 143.864 561.507 147.192ZM596.169 130.424C596.169 129.656 596.212 128.717 596.297 127.608C596.468 126.413 596.724 124.877 597.065 123C597.406 121.037 597.833 118.691 598.345 115.96C598.942 113.229 599.668 109.944 600.521 106.104C600.692 105.251 601.076 103.885 601.673 102.008C602.27 100.131 603.038 98.168 603.977 96.12C605.001 93.9867 606.196 91.9387 607.561 89.976C609.012 88.0133 610.718 86.5627 612.681 85.624C614.132 85.9653 616.052 86.8613 618.441 88.312C620.83 89.6773 622.878 91.5973 624.585 94.072C622.622 96.2907 620.958 98.5093 619.593 100.728C618.313 102.947 617.118 105.251 616.009 107.64C614.985 110.029 614.004 112.504 613.065 115.064C612.212 117.624 611.23 120.312 610.121 123.128C609.182 125.517 608.329 127.992 607.561 130.552C606.793 133.027 606.366 135.203 606.281 137.08C606.281 138.616 606.238 139.683 606.153 140.28C606.153 140.963 605.94 141.304 605.513 141.304C605.172 141.304 604.489 141.091 603.465 140.664C602.441 140.237 601.374 139.597 600.265 138.744C599.241 137.805 598.302 136.653 597.449 135.288C596.596 133.923 596.169 132.301 596.169 130.424ZM620.617 74.872C620.617 74.36 620.745 73.592 621.001 72.568C620.574 72.1413 620.19 71.5013 619.849 70.648C619.593 69.7947 619.465 69.0267 619.465 68.344C619.465 67.576 619.55 66.552 619.721 65.272C619.977 63.9067 620.276 62.456 620.617 60.92C620.958 59.384 621.385 57.8053 621.897 56.184C622.409 54.4773 622.921 52.9413 623.433 51.576C624.457 51.576 625.694 51.8747 627.145 52.472C628.681 52.984 630.217 53.7093 631.753 54.648C633.289 55.5013 634.697 56.4827 635.977 57.592C637.257 58.616 638.238 59.5973 638.921 60.536C637.982 61.4747 636.745 62.7973 635.209 64.504C633.673 66.1253 632.18 67.8747 630.729 69.752C629.278 71.544 627.956 73.2507 626.761 74.872C625.566 76.4933 624.798 77.6453 624.457 78.328C623.433 78.1573 622.537 77.7307 621.769 77.048C621.001 76.28 620.617 75.5547 620.617 74.872ZM641.395 143.48C636.531 142.968 632.648 140.835 629.747 137.08C626.846 133.325 625.395 128.547 625.395 122.744C625.395 119.331 625.907 115.789 626.931 112.12C627.955 108.451 629.406 104.909 631.283 101.496C633.16 97.9973 635.379 94.712 637.939 91.64C640.499 88.568 643.272 85.9227 646.259 83.704C650.952 80.2053 655.347 78.456 659.443 78.456C662.174 79.9067 664.862 82.936 667.507 87.544C667.934 87.544 668.318 87.544 668.659 87.544C669 87.4587 669.384 87.416 669.811 87.416C674.334 87.416 676.595 91.4267 676.595 99.448C676.595 104.824 675.699 109.944 673.907 114.808C672.2 119.587 669.768 123.939 666.611 127.864C663.539 131.789 659.827 135.117 655.475 137.848C651.208 140.493 646.515 142.371 641.395 143.48ZM647.923 103.16C646.472 105.123 645.107 107.256 643.827 109.56C642.547 111.864 641.438 114.211 640.499 116.6C639.56 118.904 638.835 121.165 638.323 123.384C637.811 125.517 637.555 127.437 637.555 129.144C637.555 131.192 637.896 133.155 638.579 135.032C639.262 136.909 640.03 137.976 640.883 138.232C644.723 137.379 648.222 135.8 651.379 133.496C654.622 131.107 657.395 128.163 659.699 124.664C662.088 121.165 663.923 117.197 665.203 112.76C666.568 108.323 667.251 103.587 667.251 98.552C667.251 96.3333 667.123 94.584 666.867 93.304C666.611 92.024 666.184 90.9147 665.587 89.976C661.832 91.0853 658.462 92.8773 655.475 95.352C652.574 97.8267 650.056 100.429 647.923 103.16ZM682.663 130.808C682.663 127.053 683.559 121.805 685.351 115.064C687.143 108.237 689.66 100.301 692.903 91.256C698.194 76.8347 703.143 64.8453 707.751 55.288C712.444 45.6453 717.01 38.136 721.447 32.76C722.471 32.9307 723.708 33.3573 725.159 34.04C726.695 34.7227 728.188 35.4907 729.639 36.344C731.09 37.112 732.37 37.9227 733.479 38.776C734.674 39.6293 735.442 40.312 735.783 40.824C729.127 48.6747 723.282 57.1227 718.247 66.168C713.212 75.2133 708.604 85.5813 704.423 97.272C700.839 107.341 698.108 116.429 696.231 124.536C694.354 132.557 693.415 139.256 693.415 144.632C693.415 146.083 693.415 146.979 693.415 147.32C693.415 147.661 693.458 148.003 693.543 148.344C692.348 148.173 691.324 147.875 690.471 147.448C689.618 147.021 689.063 146.509 688.807 145.912C688.636 145.485 688.167 144.845 687.399 143.992C686.631 143.224 685.948 142.627 685.351 142.2C684.583 141.688 683.943 140.365 683.431 138.232C682.919 136.013 682.663 133.539 682.663 130.808ZM713.169 130.424C713.169 129.656 713.212 128.717 713.297 127.608C713.468 126.413 713.724 124.877 714.065 123C714.406 121.037 714.833 118.691 715.345 115.96C715.942 113.229 716.668 109.944 717.521 106.104C717.692 105.251 718.076 103.885 718.673 102.008C719.27 100.131 720.038 98.168 720.977 96.12C722.001 93.9867 723.196 91.9387 724.561 89.976C726.012 88.0133 727.718 86.5627 729.681 85.624C731.132 85.9653 733.052 86.8613 735.441 88.312C737.83 89.6773 739.878 91.5973 741.585 94.072C739.622 96.2907 737.958 98.5093 736.593 100.728C735.313 102.947 734.118 105.251 733.009 107.64C731.985 110.029 731.004 112.504 730.065 115.064C729.212 117.624 728.23 120.312 727.121 123.128C726.182 125.517 725.329 127.992 724.561 130.552C723.793 133.027 723.366 135.203 723.281 137.08C723.281 138.616 723.238 139.683 723.153 140.28C723.153 140.963 722.94 141.304 722.513 141.304C722.172 141.304 721.489 141.091 720.465 140.664C719.441 140.237 718.374 139.597 717.265 138.744C716.241 137.805 715.302 136.653 714.449 135.288C713.596 133.923 713.169 132.301 713.169 130.424ZM737.617 74.872C737.617 74.36 737.745 73.592 738.001 72.568C737.574 72.1413 737.19 71.5013 736.849 70.648C736.593 69.7947 736.465 69.0267 736.465 68.344C736.465 67.576 736.55 66.552 736.721 65.272C736.977 63.9067 737.276 62.456 737.617 60.92C737.958 59.384 738.385 57.8053 738.897 56.184C739.409 54.4773 739.921 52.9413 740.433 51.576C741.457 51.576 742.694 51.8747 744.145 52.472C745.681 52.984 747.217 53.7093 748.753 54.648C750.289 55.5013 751.697 56.4827 752.977 57.592C754.257 58.616 755.238 59.5973 755.921 60.536C754.982 61.4747 753.745 62.7973 752.209 64.504C750.673 66.1253 749.18 67.8747 747.729 69.752C746.278 71.544 744.956 73.2507 743.761 74.872C742.566 76.4933 741.798 77.6453 741.457 78.328C740.433 78.1573 739.537 77.7307 738.769 77.048C738.001 76.28 737.617 75.5547 737.617 74.872ZM764.027 76.92C766.246 77.6027 768.336 79.1387 770.299 81.528C772.262 83.832 773.712 86.392 774.651 89.208C773.712 91.512 772.262 94.2853 770.299 97.528C768.336 100.771 766.374 104.099 764.411 107.512C762.448 110.84 760.656 114.04 759.035 117.112C757.499 120.099 756.603 122.573 756.347 124.536C757.712 123.085 759.206 121.421 760.827 119.544C762.534 117.581 764.155 115.661 765.691 113.784C767.312 111.821 768.806 110.072 770.171 108.536C771.536 106.915 772.603 105.72 773.371 104.952C774.992 103.245 776.912 101.283 779.131 99.064C781.35 96.76 783.654 94.6267 786.043 92.664C788.518 90.616 790.992 88.9093 793.467 87.544C795.942 86.0933 798.203 85.368 800.251 85.368C802.47 85.368 804.304 86.136 805.755 87.672C807.291 89.1227 808.486 90.6587 809.339 92.28C809.339 92.4507 808.998 92.7067 808.315 93.048C807.718 93.304 806.822 94.1147 805.627 95.48C804.432 97.016 803.067 99.1493 801.531 101.88C800.08 104.525 798.63 107.427 797.179 110.584C795.814 113.656 794.662 116.813 793.723 120.056C792.784 123.299 792.315 126.243 792.315 128.888C792.315 131.021 792.571 132.387 793.083 132.984C793.68 133.581 794.491 133.88 795.515 133.88C796.454 133.88 797.435 133.667 798.459 133.24C799.483 132.813 800.294 132.6 800.891 132.6C801.232 132.771 801.488 133.155 801.659 133.752C801.915 134.264 802.043 134.733 802.043 135.16C801.36 135.757 800.55 136.355 799.611 136.952C798.672 137.549 797.691 138.104 796.667 138.616C795.643 139.128 794.619 139.555 793.595 139.896C792.656 140.237 791.803 140.408 791.035 140.408C788.56 140.408 786.512 140.024 784.891 139.256C783.355 138.573 782.118 137.635 781.179 136.44C780.326 135.245 779.728 133.837 779.387 132.216C779.046 130.509 778.875 128.717 778.875 126.84C778.875 125.816 778.96 124.664 779.131 123.384C779.302 122.104 779.643 120.611 780.155 118.904C780.667 117.112 781.392 115.021 782.331 112.632C783.27 110.157 784.464 107.213 785.915 103.8C785.744 103.8 784.592 104.397 782.459 105.592C780.326 106.787 778.022 108.621 775.547 111.096C771.536 114.936 767.91 118.733 764.667 122.488C761.51 126.243 758.267 130.424 754.939 135.032C753.062 137.677 751.398 139.896 749.947 141.688C748.582 143.565 747.387 144.803 746.363 145.4C744.571 144.376 743.248 142.925 742.395 141.048C741.542 139.256 740.902 137.379 740.475 135.416C740.475 133.795 740.688 131.747 741.115 129.272C741.627 126.797 742.267 124.067 743.035 121.08C743.888 118.008 744.912 114.808 746.107 111.48C747.302 108.152 748.624 104.824 750.075 101.496C753.318 93.9867 756.262 88.0987 758.907 83.832C761.638 79.5653 763.344 77.2613 764.027 76.92Z" fill="#635D59"/>
</svg>
